<?xml version="1.0" encoding="UTF-8" standalone="no"?>
<!-- Created with Inkscape (http://www.inkscape.org/) -->

<svg
   xmlns:dc="http://purl.org/dc/elements/1.1/"
   xmlns:cc="http://creativecommons.org/ns#"
   xmlns:rdf="http://www.w3.org/1999/02/22-rdf-syntax-ns#"
   xmlns:svg="http://www.w3.org/2000/svg"
   xmlns="http://www.w3.org/2000/svg"
   xmlns:sodipodi="http://sodipodi.sourceforge.net/DTD/sodipodi-0.dtd"
   xmlns:inkscape="http://www.inkscape.org/namespaces/inkscape"
   width="137.00003"
   height="49.060669"
   viewBox="0 0 36.247924 12.980635"
   version="1.1"
   id="svg713"
   inkscape:version="0.92.0 r15299"
   sodipodi:docname="jeronimo martins.svg">
  <defs
     id="defs707">
    <clipPath
       id="clipPath174"
       clipPathUnits="userSpaceOnUse">
      <path
         inkscape:connector-curvature="0"
         id="path172"
         d="M 0,0 H 1024 V 768 H 0 Z" />
    </clipPath>
  </defs>
  <sodipodi:namedview
     id="base"
     pagecolor="#ffffff"
     bordercolor="#666666"
     borderopacity="1.0"
     inkscape:pageopacity="0.0"
     inkscape:pageshadow="2"
     inkscape:zoom="5.8970575"
     inkscape:cx="68.500005"
     inkscape:cy="24.53057"
     inkscape:document-units="mm"
     inkscape:current-layer="layer1"
     showgrid="false"
     fit-margin-top="0"
     fit-margin-left="0"
     fit-margin-right="0"
     fit-margin-bottom="0"
     units="px"
     inkscape:window-width="1280"
     inkscape:window-height="744"
     inkscape:window-x="-4"
     inkscape:window-y="-4"
     inkscape:window-maximized="1" />
  <metadata
     id="metadata710">
    <rdf:RDF>
      <cc:Work
         rdf:about="">
        <dc:format>image/svg+xml</dc:format>
        <dc:type
           rdf:resource="http://purl.org/dc/dcmitype/StillImage" />
        <dc:title></dc:title>
      </cc:Work>
    </rdf:RDF>
  </metadata>
  <g
     inkscape:label="Layer 1"
     inkscape:groupmode="layer"
     id="layer1"
     transform="translate(-59.871425,-129.35953)">
    <g
       id="g1079">
      <path
         d="m 74.201228,131.48964 c 0.08114,0.009 0.161925,0.0272 0.252236,0.0811 0.28822,0.16192 0.477661,0.61242 0.477661,1.86443 0,1.14406 -0.126294,1.68451 -0.297391,1.90994 -0.09031,0.13476 -0.243417,0.22507 -0.351367,0.24306 v 0.072 c 1.198033,-0.13512 2.144183,-0.901 2.144183,-2.153 0,-1.19768 -0.94615,-2.02671 -2.225322,-2.08069 z"
         style="fill:#0f386c;fill-opacity:1;fill-rule:nonzero;stroke:none;stroke-width:0.35277778"
         id="path178"
         inkscape:connector-curvature="0" />
      <path
         d="m 76.79679,132.63366 v 2.20698 c 0,0.51329 -0.126294,0.62159 -0.468489,0.68474 v 0.0628 h 2.297289 v -0.0628 c -0.306211,-0.0543 -0.423333,-0.18027 -0.423333,-0.61278 v -3.47733 l -0.01799,-0.0268 -1.792817,0.53164 v 0.0448 c 0.04516,0.0183 0.125942,0.0723 0.161925,0.1083 0.153106,0.10795 0.243417,0.22508 0.243417,0.54046"
         style="fill:#0f386c;fill-opacity:1;fill-rule:nonzero;stroke:none;stroke-width:0.35277778"
         id="path182"
         inkscape:connector-curvature="0" />
      <path
         d="m 72.214807,139.45794 c 0.164747,0.2607 0.489303,0.31221 0.747536,0.14922 0.258233,-0.16298 0.351367,-0.47766 0.18662,-0.73836 -0.164748,-0.2607 -0.48895,-0.31221 -0.747537,-0.14922 -0.258233,0.16263 -0.351366,0.47766 -0.186619,0.73836"
         style="fill:#0f386c;fill-opacity:1;fill-rule:nonzero;stroke:none;stroke-width:0.35277778"
         id="path186"
         inkscape:connector-curvature="0" />
      <path
         d="m 66.651325,132.69667 -0.810683,0.11712 v 0.0628 h 2.03588 c 0,-0.74754 -0.486128,-1.40512 -1.603375,-1.44992 v 0.072 c 0.261056,0.0811 0.360186,0.63041 0.378178,1.19803"
         style="fill:#0f386c;fill-opacity:1;fill-rule:nonzero;stroke:none;stroke-width:0.35277778"
         id="path190"
         inkscape:connector-curvature="0" />
      <path
         d="m 66.146782,135.66032 c 1.243189,0 1.756833,-0.97296 1.873956,-1.47743 l -0.05397,-0.036 c -0.207081,0.28822 -0.531637,0.4953 -1.090084,0.4953 -0.783872,0 -1.297516,-0.51329 -1.297516,-1.58538 0,-0.9906 0.207433,-1.42311 0.48648,-1.54905 v -0.0723 c -1.099255,0.15311 -1.901119,0.98214 -1.901119,2.19816 0,1.04458 0.65793,2.02671 1.982258,2.02671"
         style="fill:#0f386c;fill-opacity:1;fill-rule:nonzero;stroke:none;stroke-width:0.35277778"
         id="path194"
         inkscape:connector-curvature="0" />
      <path
         d="m 70.498296,131.92193 0.07232,0.018 c -0.06315,0.0811 -0.126294,0.24342 -0.126294,0.40534 0,0.36054 0.279047,0.6216 0.657578,0.6216 0.432505,0 0.747889,-0.30621 0.747889,-0.76553 0,-0.47731 -0.297392,-0.7747 -0.793045,-0.7747 -0.423333,0 -0.810683,0.36019 -0.918633,0.71155 v 0.036 c 0.10795,-0.18909 0.251883,-0.25224 0.360186,-0.25224"
         style="fill:#0f386c;fill-opacity:1;fill-rule:nonzero;stroke:none;stroke-width:0.35277778"
         id="path198"
         inkscape:connector-curvature="0" />
      <path
         d="m 70.480305,135.52514 c -0.342547,-0.0452 -0.540456,-0.20708 -0.540456,-0.65758 v -3.43217 l -0.01834,-0.0268 -1.792464,0.53128 v 0.0452 c 0.0448,0.018 0.125942,0.072 0.161925,0.1083 0.153106,0.1076 0.243417,0.22507 0.243417,0.5401 v 2.20733 c 0,0.51329 -0.126295,0.62124 -0.468489,0.68439 v 0.0632 h 2.414411 z"
         style="fill:#0f386c;fill-opacity:1;fill-rule:nonzero;stroke:none;stroke-width:0.35277778"
         id="path202"
         inkscape:connector-curvature="0" />
      <path
         d="m 92.504997,137.97394 v 0.0632 c 0.441678,0.0811 0.927806,0.72954 1.090083,1.29716 h 0.06315 l -0.04516,-1.2072 c -0.143933,-0.054 -0.675569,-0.15311 -1.108075,-0.15311"
         style="fill:#0f386c;fill-opacity:1;fill-rule:nonzero;stroke:none;stroke-width:0.35277778"
         id="path206"
         inkscape:connector-curvature="0" />
      <path
         d="m 61.411164,134.93988 c -0.225425,-0.35842 -0.673453,-0.42757 -1.031875,-0.20179 -0.358422,0.22543 -0.489656,0.6597 -0.264231,1.01776 0.225425,0.35807 0.673453,0.42757 1.031875,0.20215 0.358423,-0.22613 0.489656,-0.6597 0.264231,-1.01812"
         style="fill:#0f386c;fill-opacity:1;fill-rule:nonzero;stroke:none;stroke-width:0.35277778"
         id="path210"
         inkscape:connector-curvature="0" />
      <path
         d="m 89.446131,132.83178 v 2.08104 c 0,0.43215 -0.117122,0.55844 -0.423333,0.61242 v 0.0632 h 2.297289 v -0.0632 c -0.333375,-0.0628 -0.468137,-0.17145 -0.468137,-0.68474 v -2.20663 c 0,-0.70273 -0.189441,-1.2072 -0.982486,-1.2072 -0.585611,0 -1.135239,0.38735 -1.387475,0.79269 v 0.0268 c 0.117475,-0.0448 0.252236,-0.0808 0.396523,-0.0808 0.423686,0 0.567619,0.19791 0.567619,0.6664"
         style="fill:#0f386c;fill-opacity:1;fill-rule:nonzero;stroke:none;stroke-width:0.35277778"
         id="path214"
         inkscape:connector-curvature="0" />
      <path
         d="m 86.878438,132.83178 v 2.08104 c 0,0.43215 -0.117122,0.55844 -0.423333,0.61242 v 0.0632 h 2.234141 v -0.0632 c -0.315383,-0.054 -0.405341,-0.17145 -0.405341,-0.61242 v -2.27895 c 0,-0.70273 -0.189089,-1.2072 -0.982134,-1.2072 -0.585258,0 -1.135239,0.38735 -1.387475,0.79269 v 0.0268 c 0.117123,-0.0448 0.252236,-0.0808 0.396523,-0.0808 0.423686,0 0.567619,0.19791 0.567619,0.6664"
         style="fill:#0f386c;fill-opacity:1;fill-rule:nonzero;stroke:none;stroke-width:0.35277778"
         id="path218"
         inkscape:connector-curvature="0" />
      <path
         d="m 83.743091,135.52514 c -0.324556,-0.0632 -0.486481,-0.17992 -0.486481,-0.68439 v -2.16217 c 0,-0.36019 0.01799,-0.87383 0.02681,-1.24319 l -0.01799,-0.0268 -1.837972,0.53128 v 0.0452 c 0.04515,0.018 0.144286,0.0811 0.180622,0.1083 0.153105,0.11712 0.243064,0.24306 0.243064,0.55845 v 2.18898 c 0,0.51329 -0.126295,0.62124 -0.468489,0.68439 v 0.0632 h 2.360436 z"
         style="fill:#0f386c;fill-opacity:1;fill-rule:nonzero;stroke:none;stroke-width:0.35277778"
         id="path222"
         inkscape:connector-curvature="0" />
      <path
         d="m 93.626513,135.66032 v -0.0632 c -0.08114,-0.018 -0.171097,-0.0448 -0.252236,-0.0991 -0.288572,-0.16192 -0.486833,-0.6036 -0.486833,-1.85561 0,-1.1437 0.135466,-1.69333 0.306563,-1.9184 0.09031,-0.1263 0.216253,-0.20744 0.342195,-0.22543 v -0.072 c -1.180042,0.11713 -2.135011,0.90065 -2.135011,2.15301 0,1.19803 0.936978,2.02671 2.225322,2.08068"
         style="fill:#0f386c;fill-opacity:1;fill-rule:nonzero;stroke:none;stroke-width:0.35277778"
         id="path226"
         inkscape:connector-curvature="0" />
      <path
         d="m 86.139651,135.52514 c -0.306564,-0.054 -0.423333,-0.17992 -0.423333,-0.61242 v -3.47733 l -0.01799,-0.0268 -1.793169,0.53128 v 0.0452 c 0.04515,0.018 0.126294,0.072 0.162277,0.1083 0.153106,0.1076 0.243064,0.22507 0.243064,0.5401 v 2.20733 c 0,0.51329 -0.125941,0.62124 -0.468489,0.68439 v 0.0632 h 2.297642 z"
         style="fill:#0f386c;fill-opacity:1;fill-rule:nonzero;stroke:none;stroke-width:0.35277778"
         id="path230"
         inkscape:connector-curvature="0" />
      <path
         d="m 82.54481,131.19384 c 0.423686,0 0.765881,-0.29739 0.765881,-0.72072 0,-0.42334 -0.342195,-0.72073 -0.765881,-0.72073 -0.423333,0 -0.765881,0.29739 -0.765881,0.72073 0,0.42333 0.342548,0.72072 0.765881,0.72072"
         style="fill:#0f386c;fill-opacity:1;fill-rule:nonzero;stroke:none;stroke-width:0.35277778"
         id="path234"
         inkscape:connector-curvature="0" />
      <path
         d="m 84.339073,137.75469 c 0.423686,0 0.765881,-0.29739 0.765881,-0.72072 0,-0.42334 -0.342195,-0.72073 -0.765881,-0.72073 -0.423333,0 -0.765881,0.29739 -0.765881,0.72073 0,0.42333 0.342548,0.72072 0.765881,0.72072"
         style="fill:#0f386c;fill-opacity:1;fill-rule:nonzero;stroke:none;stroke-width:0.35277778"
         id="path238"
         inkscape:connector-curvature="0" />
      <path
         d="m 79.427595,132.83178 v 2.08104 c 0,0.43215 -0.117122,0.55844 -0.414514,0.61242 v 0.0632 h 2.28847 v -0.0632 c -0.333375,-0.0628 -0.459317,-0.17145 -0.459317,-0.68474 v -2.20663 c 0,-0.70273 -0.261408,-1.2072 -1.054453,-1.2072 -0.585611,0 -1.135239,0.38735 -1.387122,0.79269 v 0.0268 c 0.116769,-0.0448 0.279047,-0.0808 0.423333,-0.0808 0.414514,0 0.603603,0.19791 0.603603,0.6664"
         style="fill:#0f386c;fill-opacity:1;fill-rule:nonzero;stroke:none;stroke-width:0.35277778"
         id="path242"
         inkscape:connector-curvature="0" />
      <path
         d="m 90.135459,141.38802 v -2.20698 c 0,-0.70273 -0.261056,-1.20685 -1.0541,-1.20685 -0.585611,0 -1.135239,0.387 -1.387475,0.79234 v 0.0272 c 0.117122,-0.0452 0.2794,-0.0811 0.423333,-0.0811 0.414514,0 0.603603,0.19826 0.603603,0.66675 v 2.08104 c 0,0.43215 -0.116769,0.55809 -0.414161,0.61242 v 0.0628 h 2.288469 v -0.0628 c -0.333375,-0.0631 -0.459669,-0.1711 -0.459669,-0.68474"
         style="fill:#0f386c;fill-opacity:1;fill-rule:nonzero;stroke:none;stroke-width:0.35277778"
         id="path246"
         inkscape:connector-curvature="0" />
      <path
         d="m 87.495694,141.46013 v -3.47698 l -0.01799,-0.0272 -1.792816,0.53163 v 0.0448 c 0.04515,0.018 0.125941,0.072 0.161925,0.1083 0.153458,0.10795 0.243064,0.22507 0.243064,0.54046 v 2.20662 c 0,0.51364 -0.125589,0.62195 -0.468137,0.68474 v 0.0632 h 2.297289 v -0.0632 c -0.306211,-0.054 -0.423333,-0.17991 -0.423333,-0.61242"
         style="fill:#0f386c;fill-opacity:1;fill-rule:nonzero;stroke:none;stroke-width:0.35277778"
         id="path250"
         inkscape:connector-curvature="0" />
      <path
         d="m 78.945736,137.97394 c -0.423333,0 -0.811036,0.36019 -0.918986,0.71191 v 0.036 c 0.10795,-0.18944 0.252236,-0.25224 0.360186,-0.25224 l 0.07197,0.018 c -0.0628,0.0808 -0.125589,0.24342 -0.125589,0.40535 0,0.36018 0.279047,0.62124 0.657578,0.62124 0.432505,0 0.747536,-0.30586 0.747536,-0.76553 0,-0.47731 -0.297392,-0.7747 -0.792692,-0.7747"
         style="fill:#0f386c;fill-opacity:1;fill-rule:nonzero;stroke:none;stroke-width:0.35277778"
         id="path254"
         inkscape:connector-curvature="0" />
      <path
         d="m 83.216182,141.31598 c -0.117122,0.0363 -0.378531,0.0903 -0.603603,0.0903 -0.477661,0 -0.738716,-0.22542 -0.738716,-0.7299 v -2.07186 h 1.189213 l 0.08079,-0.52246 h -1.27 v -1.0541 l -0.117123,-0.0536 -1.757186,1.47708 v 0.15311 h 0.45967 v 2.43205 c 0,0.91899 0.576791,1.17122 1.234369,1.17122 0.720725,0 1.315508,-0.48648 1.522589,-0.84666 z"
         style="fill:#0f386c;fill-opacity:1;fill-rule:nonzero;stroke:none;stroke-width:0.35277778"
         id="path258"
         inkscape:connector-curvature="0" />
      <path
         d="m 85.050908,141.4015 v -2.16217 c 0,-0.36019 0.01799,-0.87384 0.02716,-1.24284 l -0.01835,-0.0272 -1.837972,0.53163 v 0.0448 c 0.04516,0.018 0.144286,0.0815 0.18027,0.10831 0.153458,0.11712 0.243416,0.24341 0.243416,0.55844 v 2.18899 c 0,0.51329 -0.126294,0.62159 -0.468489,0.68439 v 0.0632 h 2.360437 v -0.0632 c -0.324203,-0.0628 -0.486481,-0.17992 -0.486481,-0.68439"
         style="fill:#0f386c;fill-opacity:1;fill-rule:nonzero;stroke:none;stroke-width:0.35277778"
         id="path262"
         inkscape:connector-curvature="0" />
      <path
         d="m 93.761732,131.42653 v 0.0631 c 0.08114,0.009 0.161925,0.0272 0.252236,0.0808 0.28822,0.16228 0.477661,0.61313 0.477661,1.86479 0,1.14405 -0.126294,1.68451 -0.297744,1.90994 -0.08996,0.13511 -0.243064,0.22507 -0.351014,0.24306 v 0.072 c 1.198033,-0.13512 2.144183,-0.90065 2.144183,-2.15265 0,-1.19839 -0.94615,-2.02707 -2.225322,-2.08104"
         style="fill:#0f386c;fill-opacity:1;fill-rule:nonzero;stroke:none;stroke-width:0.35277778"
         id="path266"
         inkscape:connector-curvature="0" />
      <path
         d="m 90.81124,140.67647 h -0.06315 l 0.04516,1.28799 c 0.243064,0.1083 0.819856,0.24342 1.225198,0.24342 v -0.054 c -0.396523,-0.12629 -1.045281,-0.89182 -1.207206,-1.47743"
         style="fill:#0f386c;fill-opacity:1;fill-rule:nonzero;stroke:none;stroke-width:0.35277778"
         id="path270"
         inkscape:connector-curvature="0" />
      <path
         d="m 92.748202,139.45134 c -0.423333,-0.26141 -0.883003,-0.48648 -0.883003,-0.90099 0,-0.30622 0.207434,-0.45932 0.38735,-0.50448 v -0.0628 c -0.864658,0.0811 -1.459441,0.59443 -1.459441,1.30598 0,0.75671 0.540455,1.10808 1.063272,1.41464 0.477308,0.26988 0.891822,0.50412 0.891822,0.88265 0,0.3422 -0.189089,0.51365 -0.459669,0.56727 v 0.054 c 0.973313,-0.0628 1.576916,-0.54927 1.576916,-1.4231 0,-0.59443 -0.522816,-0.97296 -1.117247,-1.33315"
         style="fill:#0f386c;fill-opacity:1;fill-rule:nonzero;stroke:none;stroke-width:0.35277778"
         id="path274"
         inkscape:connector-curvature="0" />
      <path
         d="m 64.245945,129.98525 v -0.0723 h -3.045178 v 0.0723 c 0.513292,0.0811 0.711553,0.29739 0.711553,1.04493 v 3.90066 c 0,0.11748 -0.0032,0.22966 -0.0099,0.3362 l -7.05e-4,-3.5e-4 c 0,0 -0.02752,0.66604 -0.788811,1.03293 0,0 0.739775,0.11571 1.452738,-0.26106 0.217312,-0.1083 0.386645,-0.24165 0.517173,-0.38347 l 0.01482,-0.0145 -0.0018,-7.1e-4 c 0.381706,-0.42368 0.4318,-0.91616 0.43815,-1.03681 v -3.57293 c 0,-0.79269 0.243064,-0.96379 0.711906,-1.04493"
         style="fill:#0f386c;fill-opacity:1;fill-rule:nonzero;stroke:none;stroke-width:0.35277778"
         id="path278"
         inkscape:connector-curvature="0" />
      <path
         d="m 67.471287,142.18985 h 0.0053 l 0.0053,-0.01 z"
         style="fill:#0f386c;fill-opacity:1;fill-rule:nonzero;stroke:none;stroke-width:0.35277778"
         id="path282"
         inkscape:connector-curvature="0" />
      <path
         d="m 71.179545,140.96469 -0.135114,-3.38702 c -0.03598,-0.78352 0.216253,-0.97296 0.720725,-1.04493 v -0.0723 h -2.37878 l 3.52e-4,0.002 -0.01411,-7e-4 -1.168047,2.98379 0.161572,0.36795 1.044222,-2.71039 0.147462,3.98709 c 0.03598,0.72955 -0.270228,0.901 -0.711906,0.97296 v 0.072 h 3.063522 v -0.072 c -0.48648,-0.0808 -0.702733,-0.29704 -0.729897,-1.0989"
         style="fill:#0f386c;fill-opacity:1;fill-rule:nonzero;stroke:none;stroke-width:0.35277778"
         id="path286"
         inkscape:connector-curvature="0" />
      <path
         d="m 68.095562,139.72492 -1.4478,-3.26425 h -2.567869 v 0.072 c 0.2794,0.036 0.567619,0.17145 0.783872,0.36936 0.243417,0.21626 0.423686,0.51365 0.603955,0.90982 l 1.951567,4.37127 0.0088,-0.025 0.03105,0.01 0.801158,-2.07928 -0.16263,-0.36971 z"
         style="fill:#0f386c;fill-opacity:1;fill-rule:nonzero;stroke:none;stroke-width:0.35277778"
         id="path290"
         inkscape:connector-curvature="0" />
      <path
         d="m 65.458442,141.68534 c -0.182739,-0.20249 -0.237419,-0.55245 -0.240242,-0.92463 l 0.149578,-2.62043 -0.224014,-0.46214 -0.201436,2.89842 c -0.0321,0.2988 -0.0829,0.51012 -0.137583,0.65899 -0.06844,0.12947 -0.141464,0.24306 -0.217664,0.34078 l -0.02117,0.0109 0.0081,0.005 c -0.02611,0.0325 -0.05256,0.0642 -0.07973,0.0931 -0.20708,0.23424 -0.432505,0.33337 -0.7747,0.38735 v 0.0628 h 2.549525 v -0.0628 c -0.360186,-0.036 -0.59443,-0.14429 -0.810683,-0.38735"
         style="fill:#0f386c;fill-opacity:1;fill-rule:nonzero;stroke:none;stroke-width:0.35277778"
         id="path294"
         inkscape:connector-curvature="0" />
      <path
         d="m 75.981627,141.54123 c -0.04516,0.0272 -0.135114,0.0631 -0.225072,0.0631 -0.216606,0 -0.324556,-0.10831 -0.324556,-0.37853 v -1.99955 c 0,-0.77505 -0.38735,-1.25236 -1.378303,-1.25236 -0.477308,0 -1.018116,0.21625 -1.369483,0.45932 v 0.0272 c 0.810683,0 1.34232,0.19826 1.34232,0.84702 v 1.85561 c 0,0.68439 0.315383,1.04458 0.928158,1.04458 0.567619,0 0.909814,-0.32421 1.026936,-0.63042 z"
         style="fill:#0f386c;fill-opacity:1;fill-rule:nonzero;stroke:none;stroke-width:0.35277778"
         id="path298"
         inkscape:connector-curvature="0" />
      <path
         d="m 73.233664,140.83864 c 0,-0.20708 0.05433,-0.41451 0.143933,-0.54963 0.09031,-0.12594 0.288573,-0.20743 0.441678,-0.27023 v -0.0628 c -0.396522,0.0988 -1.369483,0.33302 -1.549753,0.39617 -0.171097,0.0632 -0.423333,0.36936 -0.423333,0.84667 0,0.55844 0.351367,1.00894 1.027289,1.00894 0.576439,0 0.954617,-0.4505 1.026936,-0.6664 v -0.0363 c -0.04516,0.0363 -0.171097,0.072 -0.270228,0.072 -0.270228,0 -0.396522,-0.17991 -0.396522,-0.73836"
         style="fill:#0f386c;fill-opacity:1;fill-rule:nonzero;stroke:none;stroke-width:0.35277778"
         id="path302"
         inkscape:connector-curvature="0" />
      <path
         d="m 77.82856,141.41504 v -3.43182 l -0.01799,-0.0272 -1.793169,0.53129 v 0.0452 c 0.04516,0.018 0.126294,0.072 0.162278,0.10831 0.153458,0.10795 0.243064,0.22507 0.243064,0.54045 v 2.20663 c 0,0.51364 -0.125942,0.62159 -0.468137,0.68474 v 0.0631 h 2.414412 v -0.0631 c -0.342548,-0.0452 -0.540456,-0.20708 -0.540456,-0.65758"
         style="fill:#0f386c;fill-opacity:1;fill-rule:nonzero;stroke:none;stroke-width:0.35277778"
         id="path306"
         inkscape:connector-curvature="0" />
      <path
         d="m 73.129278,131.64306 c -0.758472,0.33091 -1.288697,1.00365 -1.288697,1.9364 0,1.19803 0.93733,2.02671 2.225322,2.08068 v -0.0632 c -0.08114,-0.0176 -0.171097,-0.0448 -0.252236,-0.0988 -0.28822,-0.16228 -0.486481,-0.60361 -0.486481,-1.85562 0,-1.14405 0.135467,-1.69368 0.306211,-1.91875 0.09031,-0.12595 0.216606,-0.20708 0.342548,-0.22543 v -0.072 c -0.202142,0.0201 -0.397581,0.06 -0.582789,0.11819 0.246591,-0.39476 0.323497,-0.37254 0.323497,-0.37254 0.319264,0.0134 0.590197,-0.10513 0.590197,-0.10513 1.043164,-0.3376 1.075267,-1.56457 1.075267,-1.56457 l -0.03951,-0.0106 -0.04445,0.0519 c -0.183445,0.20602 -0.442031,0.30727 -0.711553,0.36618 -0.95885,0.20955 -1.057981,0.62336 -1.0414,1.02129 l 0.0018,0.0688 c 0.40393,-0.42157 0.889,-0.67734 1.066447,-0.74754 l 0.01764,0.0346 c -0.836436,0.45544 -1.423106,1.24672 -1.501775,1.35608"
         style="fill:#0f386c;fill-opacity:1;fill-rule:nonzero;stroke:none;stroke-width:0.35277778"
         id="path310"
         inkscape:connector-curvature="0" />
    </g>
  </g>
</svg>
